<?xml version="1.0" standalone="no"?>
<!DOCTYPE svg PUBLIC "-//W3C//DTD SVG 20010904//EN"
 "http://www.w3.org/TR/2001/REC-SVG-20010904/DTD/svg10.dtd">
<svg version="1.0" xmlns="http://www.w3.org/2000/svg"
 width="500.000000pt" height="500.000000pt" viewBox="0 0 500.000000 500.000000"
 preserveAspectRatio="xMidYMid meet">
<metadata>
Created by potrace 1.14, written by Peter Selinger 2001-2017
</metadata>
<g transform="translate(0.000000,500.000000) scale(0.100000,-0.100000)"
fill="#000000" stroke="none">
<path d="M2358 3595 c-2 -2 -30 -6 -63 -9 -33 -3 -80 -9 -105 -12 -52 -6 -218
-41 -240 -51 -18 -7 -28 -10 -55 -16 -73 -17 -346 -137 -373 -164 -7 -7 -19
-13 -26 -13 -7 0 -38 -18 -69 -39 -30 -22 -58 -37 -61 -33 -3 3 -6 1 -6 -5 0
-5 -16 -18 -35 -29 -19 -10 -35 -22 -35 -26 0 -3 -8 -9 -18 -12 -10 -4 -19
-17 -20 -32 -2 -31 71 -221 110 -285 15 -25 28 -49 28 -52 0 -4 18 -30 40 -59
22 -29 40 -59 40 -66 0 -7 5 -10 10 -7 6 3 10 2 10 -3 0 -4 13 -23 28 -40 l28
-31 29 25 c17 14 39 33 50 42 62 53 320 202 349 202 3 0 15 4 28 9 13 5 26 9
31 10 4 0 21 8 37 16 17 9 30 13 30 11 0 -3 21 1 48 9 26 8 67 17 92 21 25 3
59 9 76 13 32 9 309 7 379 -2 22 -3 63 -10 90 -16 28 -6 60 -13 73 -15 13 -3
50 -15 84 -27 33 -11 65 -22 72 -23 53 -10 312 -162 391 -231 59 -50 158 -151
184 -185 14 -19 38 -48 53 -65 16 -16 28 -36 28 -42 0 -7 3 -13 8 -13 4 0 12
-8 17 -19 6 -10 20 -36 31 -57 12 -22 22 -43 22 -48 0 -5 4 -12 9 -15 11 -9
73 -142 79 -171 0 -3 4 -12 7 -20 15 -35 56 -204 51 -211 -3 -5 -2 -9 3 -9 4
0 9 -12 9 -27 6 -115 13 -195 19 -201 4 -4 141 -7 306 -8 296 0 299 0 300 20
4 55 -5 213 -16 266 -2 13 -7 42 -10 65 -10 68 -55 239 -82 311 -14 38 -32 87
-40 109 -18 51 -72 162 -95 196 -9 14 -15 29 -11 33 3 3 1 6 -5 6 -7 0 -12 6
-12 13 0 7 -9 23 -20 35 -11 12 -20 24 -20 27 0 5 -31 56 -40 65 -3 3 -21 28
-40 55 -19 28 -39 55 -45 61 -5 6 -28 33 -50 59 -61 74 -247 255 -260 255 -3
0 -16 9 -28 20 -36 34 -115 90 -126 90 -5 0 -11 3 -13 8 -5 11 -103 72 -116
72 -7 0 -12 5 -12 11 0 5 -4 8 -9 5 -5 -4 -11 -2 -13 2 -5 14 -238 122 -262
122 -8 0 -17 4 -20 8 -3 5 -30 15 -61 22 -30 7 -55 17 -55 22 0 5 -4 7 -9 4
-5 -3 -22 -1 -37 4 -16 5 -40 11 -54 12 -14 2 -31 7 -37 11 -7 5 -13 6 -13 3
0 -2 -15 0 -32 5 -18 5 -58 12 -88 15 -30 3 -66 7 -80 10 -28 6 -357 14 -362
9z"/>
<path d="M473 3483 c-5 -2 -8 -25 -7 -51 5 -92 14 -197 18 -222 2 -14 7 -41
10 -60 4 -32 18 -98 32 -160 3 -14 7 -30 8 -37 1 -7 5 -16 9 -19 4 -4 7 -15 7
-24 0 -20 83 -239 113 -300 42 -82 91 -175 97 -180 3 -3 18 -25 32 -50 23 -40
34 -55 77 -106 5 -7 7 -15 4 -18 -4 -3 -2 -6 4 -6 5 0 23 -19 40 -43 31 -43
227 -243 279 -285 57 -46 190 -139 224 -158 19 -10 43 -27 52 -37 9 -10 19
-18 22 -17 10 1 141 -64 144 -72 2 -5 12 -8 22 -8 10 0 22 -4 25 -10 3 -5 15
-10 26 -10 10 0 19 -5 19 -11 0 -5 4 -8 8 -5 4 2 21 -1 37 -9 40 -18 145 -54
170 -58 11 -1 25 -6 31 -9 6 -4 24 -9 40 -12 16 -3 56 -11 89 -17 91 -17 105
-20 175 -27 89 -10 381 -9 455 1 33 5 71 9 85 11 82 9 281 62 380 101 33 13
60 22 60 20 0 -1 55 24 122 57 116 57 256 140 269 160 3 5 8 9 10 7 12 -7 88
59 89 76 0 47 -104 297 -142 339 -10 11 -18 26 -18 33 0 7 -4 13 -10 13 -5 0
-10 4 -10 10 0 9 -16 31 -45 64 -6 6 -21 26 -34 44 -26 37 -41 40 -66 12 -10
-11 -24 -20 -32 -20 -7 0 -13 -7 -13 -15 0 -8 -6 -15 -14 -15 -8 0 -16 -3 -18
-7 -6 -15 -123 -90 -203 -130 -75 -38 -205 -90 -249 -99 -10 -2 -33 -8 -50
-13 -30 -10 -72 -19 -126 -26 -14 -2 -41 -7 -60 -10 -43 -8 -285 -8 -320 0
-14 3 -41 7 -60 10 -55 7 -91 14 -150 32 -30 9 -64 18 -75 20 -11 2 -22 8 -23
13 -2 6 -8 8 -12 5 -5 -3 -17 -2 -27 3 -10 6 -61 30 -113 55 -225 108 -364
228 -558 482 -40 52 -152 281 -152 311 0 8 -5 14 -12 14 -6 0 -9 2 -6 6 3 3
-1 26 -9 52 -17 55 -22 76 -30 117 -8 45 -11 60 -13 60 -3 0 -12 100 -19 215
-1 13 -41 15 -300 15 -165 0 -303 -1 -308 -2z"/>
<path d="M2391 2792 c-70 -27 -167 -126 -172 -177 -1 -2 -7 -24 -14 -48 -10
-32 -10 -57 -3 -97 10 -58 45 -140 59 -140 5 0 9 -5 9 -11 0 -6 14 -22 32 -37
92 -78 223 -95 331 -44 76 36 147 126 161 202 3 14 5 25 6 25 1 0 3 21 4 48 0
26 -1 47 -4 47 -3 0 -6 8 -7 19 -3 34 -45 111 -82 148 -30 30 -88 65 -113 67
-3 1 -10 4 -14 9 -14 13 -148 6 -193 -11z"/>
<path d="M636 2381 c-4 -6 -4 -11 1 -11 4 0 3 -4 -3 -8 -6 -4 -18 -27 -27 -52
-8 -25 -25 -70 -36 -100 -24 -66 -65 -224 -76 -295 -19 -126 -23 -163 -26
-265 l-3 -85 302 -1 c201 0 305 3 309 10 4 6 8 39 10 75 3 61 10 136 13 136 1
0 3 10 6 23 3 19 -18 45 -116 141 -66 65 -120 122 -120 127 0 5 -11 18 -25 28
-14 10 -25 23 -25 29 0 5 -12 20 -26 33 -15 14 -22 29 -18 37 4 6 4 9 -1 5 -4
-4 -23 14 -41 40 -18 26 -37 52 -41 57 -5 6 -12 17 -16 25 -23 46 -35 61 -41
51z"/>
</g>
</svg>
